<svg width="218" height="62" xmlns="http://www.w3.org/2000/svg"><defs><linearGradient x1="50.04%" y1="-23.559%" x2="50.04%" y2="126.866%" id="a"><stop stop-color="#FF0029" offset="0%"/><stop stop-color="#AB00FF" offset="100%"/></linearGradient><linearGradient x1="-25.069%" y1="6.884%" x2="100.649%" y2="143.482%" id="b"><stop stop-color="#FF9100" offset="0%"/><stop stop-color="#FF0029" offset="51.53%"/><stop stop-color="#AB00FF" offset="100%"/></linearGradient></defs><g fill="none" fill-rule="evenodd"><path fill="url(#a)" d="M15.577 61.535l18.241-17.89 18.183 17.89V50.823l-18.183-17.89-18.24 17.89z"/><path fill="#FF8F1C" d="M.347 25.298h25.77l7.701 7.635H8.05z"/><path fill="url(#b)" d="M67.29 25.298H41.52V7.578L33.818 0v32.933h25.77z"/><g fill="#333"><path d="M217.387 39.143c0-8.546-5.212-14.301-13.03-14.301-7.643 0-13.434 5.868-13.434 13.617 0 8.034 5.675 13.675 13.84 13.675 4.227 0 8.165-1.368 10.655-3.59l.29-.228-3.417-4.957-.348.342c-1.621 1.539-4.516 2.393-6.427 2.393-3.533 0-6.139-1.937-6.776-5.014h18.647v-1.937zm-7.239-3.419h-11.466c.464-2.336 2.2-4.729 5.733-4.729 1.911-.057 5.212.969 5.733 4.73zM104.234 44.27H89.468v-29h-7.586v36.123h25.248zM190.112 51.393l-10.597-13.902 10.308-11.908h-9.15l-8.397 9.97V15.27h-7.586v36.123h7.586V39.485l9.44 11.908zM160.926 51.393L150.33 37.491l10.308-11.908h-9.208l-8.396 9.97V15.27h-7.586v36.123h7.586V39.485l9.439 11.908zM123.807 25.24l-6.138 15.441-6.022-15.44h-8.165l10.307 25.07-4.111 10.255h7.817l14.651-35.325z"/></g></g></svg>