<svg width="78" height="100" xmlns="http://www.w3.org/2000/svg"><g fill-rule="nonzero" fill="none"><path d="M39.023 61.971v.001-.001zM23.788 36.42c.212-3.979 1.006-7.582 1.819-10.143 2.322 1.457 5.323 3.723 8.127 6.638 1.603-3.668 3.62-6.792 5.289-8.93 1.669 2.138 3.686 5.26 5.29 8.928 2.804-2.914 5.804-5.18 8.127-6.637.813 2.561 1.606 6.165 1.818 10.142 3.664-1.81 7.283-2.947 9.98-3.546-.14 2.676-.667 6.325-1.872 10.133 4.081-.488 7.883-.357 10.63-.027-1.078 2.468-2.861 5.723-5.339 8.902 4.009.893 7.534 2.275 9.998 3.495-1.884 1.962-4.71 4.429-8.16 6.596 3.45 2.167 6.277 4.634 8.16 6.596-2.463 1.22-5.99 2.602-9.998 3.495 2.478 3.18 4.262 6.434 5.339 8.902-2.747.33-6.549.46-10.63-.027 1.205 3.808 1.731 7.457 1.873 10.133-2.697-.6-6.316-1.736-9.98-3.546-.213 3.978-1.006 7.58-1.818 10.142-2.324-1.456-5.324-3.723-8.127-6.637-1.604 3.667-3.622 6.79-5.29 8.928-1.67-2.138-3.687-5.261-5.291-8.928-2.804 2.914-5.803 5.18-8.126 6.637-.812-2.561-1.606-6.164-1.819-10.142-3.663 1.81-7.282 2.947-9.98 3.546.142-2.676.67-6.325 1.874-10.133-4.081.488-7.884.358-10.63.027 1.078-2.468 2.862-5.723 5.339-8.901-4.008-.894-7.534-2.275-9.999-3.495 1.885-1.963 4.71-4.43 8.161-6.596-3.45-2.167-6.276-4.634-8.16-6.596 2.463-1.22 5.99-2.602 9.999-3.495-2.478-3.18-4.262-6.434-5.34-8.902 2.746-.33 6.547-.462 10.63.026-1.205-3.808-1.732-7.457-1.873-10.133 2.696.6 6.315 1.737 9.979 3.548zM39.024 61.97h-.001z" fill="#33A457"/><path d="M39.024 61.97h-.001v.003h.002-.001v-.002zM16.598 65.8c-2.916-.947-5.634-2.314-8.045-3.828 2.411-1.515 5.129-2.882 8.045-3.829-2.406-1.855-4.476-4.041-6.208-6.263 2.802-.624 5.838-1.009 8.913-.933-1.605-2.541-2.78-5.28-3.621-7.941 2.852.34 5.842.985 8.705 2.074-.61-2.918-.747-5.882-.599-8.661 2.56 1.265 5.143 2.86 7.448 4.832.457-2.946 1.375-5.775 2.496-8.337 1.959 2.037 3.822 4.39 5.292 7.007 1.47-2.616 3.332-4.971 5.291-7.007 1.121 2.562 2.04 5.391 2.497 8.337 2.304-1.972 4.886-3.567 7.447-4.832.149 2.779.013 5.742-.598 8.661 2.862-1.089 5.852-1.733 8.705-2.074-.842 2.661-2.017 5.4-3.622 7.94 3.075-.075 6.112.31 8.912.934-1.73 2.222-3.8 4.408-6.206 6.263 2.916.947 5.633 2.315 8.044 3.829-2.41 1.514-5.128 2.882-8.044 3.829 2.405 1.855 4.475 4.041 6.206 6.262-2.8.625-5.837 1.01-8.912.934 1.605 2.54 2.78 5.28 3.622 7.94-2.853-.34-5.843-.984-8.705-2.073.611 2.918.746 5.882.597 8.661-2.56-1.265-5.142-2.86-7.446-4.832-.457 2.945-1.376 5.774-2.498 8.337-1.958-2.036-3.82-4.391-5.29-7.007-1.47 2.616-3.333 4.97-5.292 7.007-1.12-2.562-2.04-5.392-2.496-8.337-2.306 1.972-4.887 3.567-7.448 4.832-.15-2.78-.013-5.743.599-8.662-2.863 1.09-5.853 1.734-8.706 2.075.842-2.661 2.016-5.4 3.621-7.941-3.074.076-6.11-.31-8.912-.934 1.731-2.221 3.802-4.407 6.208-6.262z" fill="#B1CD49"/><path d="M39.023 61.972c.002 0 0 0 0 0h.002-.002zm.002 0v-.001h-.002.002zm-2.708-14.866c.498-2.562 1.461-4.967 2.707-7.185 1.244 2.218 2.208 4.623 2.707 7.185 1.373-2.242 3.127-4.183 5.08-5.854.387 2.495.443 5.075.007 7.647 2.083-1.652 4.416-2.895 6.843-3.82-.518 2.475-1.378 4.917-2.696 7.19 2.54-.863 5.173-1.257 7.779-1.322-1.36 2.153-3.031 4.163-5.072 5.863 2.691.03 5.305.531 7.776 1.334-2.039 1.572-4.317 2.908-6.835 3.828 2.518.92 4.797 2.256 6.836 3.829-2.471.802-5.085 1.303-7.776 1.334 2.042 1.699 3.71 3.71 5.07 5.862-2.605-.064-5.238-.459-7.777-1.321 1.317 2.272 2.176 4.714 2.694 7.188-2.426-.924-4.76-2.166-6.842-3.818.436 2.572.38 5.15-.006 7.647-1.954-1.672-3.707-3.613-5.08-5.855-.5 2.562-1.463 4.967-2.708 7.185-1.246-2.217-2.209-4.622-2.707-7.185-1.373 2.242-3.127 4.183-5.08 5.855-.387-2.496-.443-5.075-.007-7.647-2.083 1.651-4.417 2.895-6.843 3.819.518-2.474 1.377-4.916 2.695-7.19-2.54.863-5.173 1.258-7.78 1.322 1.361-2.152 3.031-4.162 5.072-5.862-2.691-.03-5.305-.531-7.776-1.334 2.039-1.572 4.318-2.908 6.836-3.828-2.519-.92-4.798-2.257-6.838-3.829 2.472-.803 5.086-1.304 7.778-1.334-2.042-1.7-3.711-3.71-5.071-5.863 2.605.065 5.238.46 7.778 1.323-1.318-2.273-2.177-4.715-2.695-7.189 2.426.924 4.76 2.167 6.842 3.818-.436-2.572-.38-5.151.007-7.647 1.953 1.67 3.708 3.612 5.082 5.854z" fill="#F8D930"/><path d="M36.284 54.684a20.034 20.034 0 0 1 .033-7.577 20.258 20.258 0 0 1 2.706 7.11 20.298 20.298 0 0 1 2.706-7.11 20.01 20.01 0 0 1 .033 7.577 20.89 20.89 0 0 1 5.055-5.784 20.299 20.299 0 0 1-2.645 7.13 21.54 21.54 0 0 1 6.792-3.76 20.85 20.85 0 0 1-5.005 5.824 21.974 21.974 0 0 1 7.712-1.285 21.543 21.543 0 0 1-6.762 3.815c2.631-.013 5.242.443 7.701 1.347-2.46.904-5.07 1.36-7.7 1.347a21.55 21.55 0 0 1 6.76 3.816c-2.63.035-5.244-.401-7.711-1.286a20.855 20.855 0 0 1 5.005 5.825 21.543 21.543 0 0 1-6.792-3.761 20.295 20.295 0 0 1 2.645 7.13 20.873 20.873 0 0 1-5.055-5.783 20.035 20.035 0 0 1-.031 7.577 20.289 20.289 0 0 1-2.708-7.11 20.293 20.293 0 0 1-2.706 7.11 20.048 20.048 0 0 1-.033-7.578 20.874 20.874 0 0 1-5.054 5.785 20.284 20.284 0 0 1 2.645-7.131 21.543 21.543 0 0 1-6.793 3.761 20.854 20.854 0 0 1 5.006-5.825 22 22 0 0 1-7.712 1.286 21.53 21.53 0 0 1 6.76-3.816 22.009 22.009 0 0 1-7.7-1.347 21.997 21.997 0 0 1 7.7-1.347 21.54 21.54 0 0 1-6.76-3.815c2.52-.03 5.109.353 7.712 1.284a20.857 20.857 0 0 1-5.006-5.824 21.56 21.56 0 0 1 6.793 3.76 20.268 20.268 0 0 1-2.645-7.13 20.874 20.874 0 0 1 5.054 5.785z" fill="#FFF"/><path d="M49.434.444v18.547h2.85v-1.78c1.173 1.522 2.477 2.223 4.369 2.223 3.516 0 6.02-2.764 6.02-7.175 0-4.54-2.557-7.3-5.993-7.3-1.892 0-3.356.773-4.369 2.244V.444h-2.877zm6.554 7.042c2.263 0 3.675 1.702 3.675 4.798 0 2.94-1.412 4.617-3.675 4.617-2.371 0-3.73-1.625-3.73-4.695 0-3.12 1.278-4.72 3.73-4.72zm15.168 0c2.237 0 3.676 1.702 3.676 4.643 0 3.095-1.412 4.772-3.676 4.772-2.424 0-3.729-1.573-3.729-4.617 0-3.173 1.332-4.798 3.73-4.798zm-3.676 9.828c.986 1.393 2.477 2.12 4.368 2.12 3.437 0 5.994-2.765 5.994-7.305 0-4.41-2.504-7.171-6.02-7.171-1.918 0-3.223.722-4.369 2.347V5.397h-2.85v19.015h2.876v-7.098z" fill="#33A457"/></g></svg>