<svg width="113" height="50" xmlns="http://www.w3.org/2000/svg"><path d="M84.376 33.65c2.173.91 3.472 2.621 3.472 4.571 0 2.583-2.032 4.123-5.435 4.123-3.612 0-5.29-3.112-5.72-4.063l-.529-1.177H69.4l-.01-.006h-6.267c-1.712 2.793-5.16 5.366-9.17 5.366-7.235 0-10.845-5.528-11.306-10.987h29.568V30.28c0-2.263-.24-4.393-.69-6.37.846 2.537 2.776 5.168 6.82 7.03a201.65 201.65 0 0 0 6.03 2.71M53.532 16.305c6.052 0 9.016 4.083 9.875 8.242h-20.14c1.05-4.168 4.784-8.242 10.265-8.242m59.337.12v-7.47h-6.286V.129h-7.718v8.828H83.321c-7.179.004-12.389 4.725-12.389 11.231.001.75.07 1.497.207 2.234-2.445-8.289-8.893-13.465-17.55-13.465-10.591 0-18.688 8.065-19.367 18.992v-2.323c0-9.192-7.647-16.67-17.045-16.67C7.78 8.956.132 16.434.132 25.626v23.899h7.812V25.625c0-4.976 4.14-9.029 9.233-9.029 5.09 0 9.234 4.052 9.234 9.03v23.898h7.811V30.931c.683 10.965 8.884 19.06 19.612 19.06 6.549 0 12.326-3.721 15.598-8.03 2.441 5.103 7.212 8.03 13.104 8.03 6.83 0 13.742-4.267 13.742-12.426 0-4.882-2.899-8.872-8.165-11.238-.58-.26-1.16-.524-1.736-.793l-.07-.035c-.62-.287-1.241-.57-1.864-.849-3.442-1.51-5.08-2.616-5.08-4.823 0-1.94 1.776-3.402 3.968-3.402h15.533v21.281c0 6.776 5.634 12.283 12.559 12.283v-7.548c-2.67 0-4.841-2.124-4.841-4.735v-21.28c3.088.002 5.466 0 6.286 0" fill="#98A4AC" fill-rule="nonzero"/></svg>