<?xml version="1.0" standalone="no"?>
<!DOCTYPE svg PUBLIC "-//W3C//DTD SVG 20010904//EN"
 "http://www.w3.org/TR/2001/REC-SVG-20010904/DTD/svg10.dtd">
<svg version="1.0" xmlns="http://www.w3.org/2000/svg"
 width="260.000000pt" height="260.000000pt" viewBox="0 0 260.000000 260.000000"
 preserveAspectRatio="xMidYMid meet">
<metadata>
Created by potrace 1.11, written by Peter Selinger 2001-2013
</metadata>
<g transform="translate(0.000000,260.000000) scale(0.100000,-0.100000)"
fill="#000000" stroke="none">
<path d="M1110 2207 c-109 -63 -171 -105 -182 -124 -48 -78 9 -175 99 -168 40
3 341 176 366 210 48 67 5 161 -80 172 -34 4 -56 -6 -203 -90z"/>
<path d="M1649 2176 c-19 -7 -186 -103 -372 -214 -186 -111 -343 -202 -348
-202 -5 0 -9 -3 -9 -8 0 -4 -10 -12 -22 -17 -52 -23 -77 -113 -47 -172 23 -46
64 -73 116 -75 47 -1 14 -19 455 244 395 235 399 238 400 319 0 41 -22 84 -56
109 -12 8 -22 14 -23 13 -2 -1 -15 2 -31 6 -18 6 -42 4 -63 -3z"/>
<path d="M654 2055 c-50 -34 -147 -145 -197 -223 -70 -110 -121 -244 -143
-377 -12 -77 -13 -269 0 -327 3 -16 8 -38 10 -50 9 -51 60 -187 92 -248 98
-181 258 -336 439 -427 42 -22 182 -70 225 -78 142 -27 230 -31 352 -15 323
42 605 240 755 530 34 67 69 154 78 199 2 9 10 47 19 86 16 79 15 306 -3 364
-34 110 -134 145 -231 81 -22 -14 -351 -212 -375 -224 -97 -53 -418 -253 -435
-271 -31 -33 -39 -108 -16 -150 24 -44 81 -75 130 -70 21 2 60 17 88 34 27 17
51 31 53 31 2 0 47 27 100 60 53 33 98 60 99 60 2 0 75 43 162 96 179 107 177
107 149 -10 -79 -328 -383 -559 -722 -550 -464 13 -796 451 -683 899 35 138
79 216 188 337 58 64 76 102 68 143 -3 11 -5 25 -5 30 -1 15 -43 60 -68 73
-30 17 -104 15 -129 -3z"/>
<path d="M1825 1861 c-22 -10 -110 -60 -195 -110 -85 -51 -247 -147 -359 -214
-222 -132 -241 -150 -241 -225 0 -106 111 -165 207 -111 58 33 670 397 709
422 143 93 34 308 -121 238z"/>
</g>
</svg>
