<svg width="226" height="42" xmlns="http://www.w3.org/2000/svg"><g fill-rule="nonzero" fill="none"><path d="M88.165 32.774c-8.257 5.953-20.225 9.13-30.528 9.13-14.448 0-27.455-5.228-37.295-13.922-.773-.683-.08-1.615.848-1.083 10.62 6.044 23.75 9.68 37.312 9.68 9.147 0 19.21-1.851 28.463-5.693 1.397-.58 2.566.895 1.2 1.888" fill="#F90"/><path d="M91.597 28.932c-1.051-1.319-6.976-.623-9.636-.315-.81.097-.934-.592-.204-1.089 4.72-3.249 12.462-2.31 13.365-1.222.903 1.095-.235 8.688-4.67 12.312-.68.557-1.329.26-1.026-.478.996-2.432 3.229-7.883 2.171-9.208" fill="#F90"/><path d="M82.147 4.593V1.434c0-.477.371-.798.816-.798h14.454c.464 0 .835.327.835.798V4.14c-.006.454-.396 1.047-1.088 1.984l-7.49 10.46c2.783-.066 5.72.34 8.244 1.731.57.315.724.775.767 1.228v3.37c0 .46-.52.998-1.064.72-4.447-2.28-10.353-2.529-15.27.024-.5.266-1.027-.266-1.027-.726v-3.2c0-.515.007-1.392.532-2.172l8.678-12.173h-7.552c-.464 0-.835-.32-.835-.792zM29.422 24.298h-4.398c-.42-.03-.754-.34-.785-.732V1.489c0-.442.377-.793.847-.793h4.1c.428.018.768.34.799.738V4.32h.08c1.07-2.789 3.08-4.09 5.789-4.09 2.752 0 4.472 1.301 5.709 4.09C42.626 1.531 45.045.23 47.636.23c1.843 0 3.86.745 5.09 2.414 1.391 1.858 1.107 4.556 1.107 6.921L53.827 23.5c0 .441-.378.798-.847.798h-4.392c-.439-.03-.791-.375-.791-.798v-11.7c0-.933.086-3.256-.124-4.14-.328-1.481-1.311-1.899-2.585-1.899-1.064 0-2.177.696-2.629 1.81-.451 1.112-.408 2.976-.408 4.228V23.5c0 .442-.377.799-.847.799h-4.391c-.446-.03-.792-.376-.792-.799l-.006-11.7c0-2.463.415-6.087-2.709-6.087-3.16 0-3.036 3.533-3.036 6.086V23.5c-.001.442-.378.799-.848.799zM110.696.23c6.525 0 10.056 5.48 10.056 12.45 0 6.734-3.902 12.077-10.056 12.077-6.408 0-9.896-5.482-9.896-12.312 0-6.873 3.532-12.215 9.896-12.215zm.037 4.507c-3.241 0-3.445 4.32-3.445 7.012 0 2.698-.044 8.458 3.407 8.458 3.408 0 3.569-4.647 3.569-7.478 0-1.864-.08-4.09-.655-5.857-.495-1.536-1.479-2.135-2.876-2.135zm18.48 19.56h-4.38c-.438-.03-.79-.375-.79-.799l-.007-22.083c.037-.405.402-.72.848-.72h4.075a.837.837 0 0 1 .786.618v3.375h.08c1.23-3.019 2.956-4.459 5.993-4.459 1.973 0 3.897.696 5.134 2.602 1.15 1.766 1.15 4.737 1.15 6.873V23.6c-.05.388-.414.696-.848.696h-4.41c-.401-.03-.735-.32-.778-.696v-11.99c0-2.414.284-5.948-2.753-5.948-1.07 0-2.053.702-2.542 1.767-.618 1.349-.698 2.692-.698 4.18V23.5c-.006.442-.39.799-.86.799zm15.641-1.755c0-1.113.971-2.009 2.165-2.009s2.165.895 2.165 2.009c0 1.107-.971 2.015-2.165 2.015s-2.165-.908-2.165-2.015zm46.59 1.76c-.458-.018-.817-.362-.817-.798V1.428c.025-.393.365-.702.786-.726h1.614c.446 0 .804.315.841.726v3.219c1.15-2.553 3.29-4.55 5.993-4.55h.328c2.87 0 4.967 2.07 5.746 5.076 1.218-2.97 3.506-5.076 6.525-5.076h.334c2.133 0 4.187 1.343 5.25 3.388 1.027 1.954.99 4.556.99 6.74l-.006 13.28c.006.423-.347.768-.786.798h-1.93c-.42-.018-.76-.308-.816-.69V10.226c0-1.579.08-3.255-.575-4.695-.668-1.47-1.948-2.39-3.321-2.456-1.534.073-2.944 1.168-3.86 2.644-1.187 1.905-1.144 3.624-1.144 5.85v12.058c-.055.363-.383.647-.785.677h-1.917c-.458-.018-.823-.362-.823-.798l-.012-14.163c0-1.301-.08-2.832-.693-4-.711-1.33-1.985-2.202-3.321-2.268-1.386.078-2.784 1.113-3.612 2.317-1.07 1.537-1.274 3.436-1.274 5.39v12.724c0 .423-.353.768-.792.798h-1.923zm-13.248.46c-6.24 0-9.036-6.225-9.036-12.45 0-6.547 3.284-12.216 9.568-12.216h.334c6.11 0 9.154 6.038 9.154 12.264 0 6.594-3.371 12.402-9.692 12.402h-.328zm.458-3.019c2.053-.066 3.674-1.312 4.632-3.388.86-1.863 1.027-3.999 1.027-6.044 0-2.226-.247-4.55-1.317-6.455-.959-1.664-2.604-2.723-4.348-2.783-1.942.067-3.68 1.355-4.552 3.34-.786 1.718-1.027 3.999-1.027 5.898 0 2.136.284 4.605 1.187 6.462.879 1.76 2.567 2.904 4.398 2.97zm-19.958-.096c2.802-.085 4.273-2.281 4.88-5.125.123-.357.402-.63.81-.63l1.85-.005c.438.018.84.345.803.744-.853 4.846-3.84 8.131-8.096 8.131h-.334c-6.197 0-8.869-6.086-8.869-12.263 0-6.13 2.71-12.403 8.906-12.403h.334c4.305 0 7.373 3.243 8.04 8.089 0 .363-.346.678-.754.72l-1.936-.024c-.408-.055-.674-.394-.736-.775-.464-2.704-2.053-4.858-4.7-4.942-4.212.133-5.412 5.203-5.412 9.105 0 3.757 1.002 9.244 5.214 9.378zM78.455 20.25c-.804-1.089-1.658-1.972-1.658-3.987V9.56c0-2.838.204-5.445-1.936-7.4C73.173.575 70.377.02 68.237.02c-4.18 0-8.856 1.524-9.833 6.582-.106.539.296.823.655.902l4.261.447c.402-.018.693-.399.767-.786.365-1.743 1.855-2.583 3.532-2.583.909 0 1.935.326 2.467 1.119.619.883.539 2.093.539 3.115v.557c-2.549.284-5.882.466-8.27 1.494-2.758 1.162-4.688 3.54-4.688 7.03 0 4.472 2.876 6.704 6.58 6.704 3.124 0 4.838-.72 7.25-3.128.798 1.131 1.063 1.682 2.523 2.868.328.17.748.151 1.039-.103l.006.012c.878-.762 2.474-2.123 3.37-2.855.36-.29.298-.757.02-1.144zm-8.653-1.936c-.7 1.21-1.812 1.954-3.043 1.954-1.688 0-2.678-1.258-2.678-3.116 0-3.666 3.358-4.331 6.544-4.331v.931c0 1.676.043 3.074-.823 4.562zM20.806 20.25c-.804-1.089-1.657-1.972-1.657-3.987V9.56c0-2.838.204-5.445-1.936-7.4C15.525.575 12.729.02 10.589.02 6.41.019 1.74 1.543.755 6.6c-.099.539.297.823.656.902l4.267.447c.396-.018.687-.399.761-.786C6.804 5.42 8.301 4.58 9.977 4.58c.903 0 1.93.326 2.468 1.119.612.883.531 2.093.531 3.115v.557c-2.548.284-5.881.466-8.269 1.494C1.955 12.028.02 14.406.02 17.896.02 22.369 2.901 24.6 6.6 24.6c3.13 0 4.837-.72 7.249-3.128.804 1.131 1.063 1.682 2.523 2.868.328.17.748.151 1.039-.103l.012.012c.879-.762 2.474-2.123 3.371-2.855.359-.29.297-.757.012-1.144zm-8.652-1.936c-.7 1.21-1.806 1.954-3.043 1.954-1.688 0-2.672-1.258-2.672-3.116 0-3.666 3.358-4.331 6.537-4.331v.931c0 1.676.044 3.074-.822 4.562zM223.599.938c1.057 0 1.936.835 1.936 1.888 0 1.029-.866 1.894-1.936 1.894-1.064 0-1.93-.847-1.93-1.894 0-1.065.878-1.888 1.93-1.888zm.006-.363c-1.237 0-2.307.98-2.307 2.257 0 1.252 1.051 2.25 2.307 2.25 1.261 0 2.3-1.01 2.3-2.25 0-1.277-1.057-2.257-2.3-2.257zm-.866 3.521h.495V3.08h.457c.18 0 .23.073.267.218 0 .036.086.678.092.798h.55c-.067-.12-.104-.466-.13-.671-.049-.32-.073-.545-.426-.569.18-.06.489-.157.489-.623 0-.666-.6-.666-.91-.666h-.884v2.53zm.482-2.123h.415c.136 0 .383 0 .383.345 0 .133-.062.357-.396.357h-.402v-.702z" fill="#221F1F"/></g></svg>