<svg xmlns="http://www.w3.org/2000/svg" width="80" height="80" viewBox="0 0 80 80">
    <g fill="none" fill-rule="evenodd">
        <path fill="#FFF" d="M0 80h80V0H0z"/>
        <path fill="#5AB700" d="M56.407 39.5c0 8.785-7.122 15.907-15.907 15.907S24.593 48.285 24.593 39.5 31.715 23.593 40.5 23.593 56.407 30.715 56.407 39.5"/>
        <path stroke="#FFF" stroke-linecap="round" stroke-linejoin="round" stroke-width="2" d="M40.5 39H37v-7h3.5a3.5 3.5 0 1 1 0 7zM42 47h-5v-8h5a4 4 0 0 1 0 8z"/>
        <path stroke="#000" stroke-linecap="round" stroke-linejoin="round" stroke-width="2" d="M23.736 23.736a6 6 0 1 1-8.485-8.485 6 6 0 0 1 8.485 8.485zM64.749 64.749a6 6 0 1 1-8.485-8.486 6 6 0 0 1 8.485 8.486zM23.736 56.264a6 6 0 1 1-8.485 8.485 6 6 0 0 1 8.485-8.485zM64.749 15.252a6 6 0 1 1-8.485 8.485 6 6 0 0 1 8.485-8.485zM56.264 23.736l-2.83 2.83M26.565 53.435l-2.829 2.83M56.264 56.264l-2.83-2.83M26.565 26.565l-2.829-2.83"/>
        <path stroke="#B3B3B3" stroke-linecap="round" stroke-linejoin="round" stroke-width="2" d="M13.6 28A28.89 28.89 0 0 0 11 40c0 4.282.936 8.342 2.6 12M66.4 52A28.887 28.887 0 0 0 69 40a28.89 28.89 0 0 0-2.6-12M28 66.4A28.875 28.875 0 0 0 40 69c4.281 0 8.342-.935 12-2.6M52 13.601a28.875 28.875 0 0 0-12-2.6c-4.281 0-8.342.934-12 2.6"/>
    </g>
</svg>
