<svg xmlns="http://www.w3.org/2000/svg" width="80" height="80" viewBox="0 0 80 80">
    <g fill="none" fill-rule="evenodd">
        <path fill="#FFF" d="M0 80h80V0H0z"/>
        <path stroke="#B3B3B3" stroke-linecap="round" stroke-linejoin="round" stroke-width="2" d="M30 63c0 6.627 5.373 12 12 12s12-5.373 12-12v-9"/>
        <path stroke="#000" stroke-linecap="round" stroke-linejoin="round" stroke-width="2" d="M38 14V9a4 4 0 0 1 4-4h24a4 4 0 0 1 4 4v37a4 4 0 0 1-4 4H46"/>
        <path stroke="#B3B3B3" stroke-linecap="round" stroke-linejoin="round" stroke-width="2" d="M51 54h6M27 63h6"/>
        <path stroke="#000" stroke-linecap="round" stroke-linejoin="round" stroke-width="2" d="M42 59H18a4 4 0 0 1-4-4V18a4 4 0 0 1 4-4h24a4 4 0 0 1 4 4v37a4 4 0 0 1-4 4z"/>
        <path fill="#5AB700" d="M31.417 22.272L20.278 36.38a1 1 0 0 0 .785 1.62H28l-2.236 11.18c-.202 1.014 1.08 1.631 1.746.84l12.105-14.376A1 1 0 0 0 38.851 34H31l2.183-10.913c.206-1.03-1.115-1.64-1.766-.815"/>
        <path stroke="#B3B3B3" stroke-linecap="round" stroke-linejoin="round" stroke-width="2" d="M64 14a3 3 0 1 1-6 0 3 3 0 0 1 6 0z"/>
    </g>
</svg>
