<svg xmlns="http://www.w3.org/2000/svg" width="64" height="54" viewBox="0 0 64 54">
    <g fill="none" fill-rule="evenodd">
        <path stroke="#B3B3B3" stroke-linecap="round" stroke-linejoin="round" stroke-width="2" d="M7 6v42"/>
        <path fill="#5AB700" d="M38 38.227a2 2 0 0 1-2-2V17.773a2 2 0 0 1 4 0v18.454a2 2 0 0 1-2 2M31 38.227a2 2 0 0 1-2-2V17.773a2 2 0 0 1 4 0v18.454a2 2 0 0 1-2 2M24 38.227a2 2 0 0 1-2-2V17.773a2 2 0 0 1 4 0v18.454a2 2 0 0 1-2 2M17 38.227a2 2 0 0 1-2-2V17.773a2 2 0 0 1 4 0v18.454a2 2 0 0 1-2 2"/>
        <path stroke="#000" stroke-linecap="round" stroke-linejoin="round" stroke-width="2" d="M63 34h-9a7 7 0 1 1 0-14h9v14z"/>
        <path fill="#000" d="M55 27a1.5 1.5 0 1 1-3 0 1.5 1.5 0 0 1 3 0"/>
        <path stroke="#000" stroke-linecap="round" stroke-linejoin="round" stroke-width="2" d="M61 34v15a4 4 0 0 1-4 4H5a4 4 0 0 1-4-4V5a4 4 0 0 1 4-4h52a4 4 0 0 1 4 4v15"/>
    </g>
</svg>
