<svg width="62" height="62" xmlns="http://www.w3.org/2000/svg"><g fill="none" fill-rule="evenodd"><path d="M57 61H5a4 4 0 0 1-4-4V5a4 4 0 0 1 4-4h52a4 4 0 0 1 4 4v52a4 4 0 0 1-4 4z" stroke="#242424" stroke-width="2"/><path d="M32.417 16.272L21.279 30.38a1 1 0 0 0 .784 1.62H29l-2.236 11.18c-.203 1.014 1.079 1.631 1.746.84l12.105-14.376A1 1 0 0 0 39.851 28H32l2.183-10.913c.206-1.03-1.115-1.64-1.766-.815" fill="#5AB700"/><path d="M55 10a3 3 0 1 1-6 0 3 3 0 0 1 6 0zM13 52a3 3 0 1 1-6 0 3 3 0 0 1 6 0z" stroke="#B3B3B3" stroke-width="2" stroke-linecap="round" stroke-linejoin="round"/></g></svg>