<svg xmlns="http://www.w3.org/2000/svg" width="80" height="80" viewBox="0 0 80 80">
    <g fill="none" fill-rule="evenodd">
        <path fill="#FFF" d="M0 80h80V0H0z"/>
        <path stroke="#B3B3B3" stroke-linecap="round" stroke-linejoin="round" stroke-width="2" d="M51.923 11.154C55.385 19.23 45 19.23 47.308 27.308c1.707 5.974 6.923 3.46 9.23 9.23 1.644 4.11-5.768 15-.057 17.474 2.907 1.259 4.923-6.361 9.289-7.09 6.923-1.153 1.153-11.537 8.076-15M30 66c.055-2.318 1.761-6 5-6 6 0 5 6 10 5 5.965-1.193 6 2 6 4"/>
        <path stroke="#000" stroke-linecap="round" stroke-linejoin="round" stroke-width="2" d="M30.51 54H9a4 4 0 0 1-4-4V29a4 4 0 0 1 4-4h21.51a3 3 0 0 1 2.39 1.187l9.64 12.709a.996.996 0 0 1 0 1.208L32.9 52.813A3 3 0 0 1 30.51 54z"/>
        <path fill="#5AB700" d="M24.846 33c-1.664 0-3.096 1.094-3.76 2.669C20.425 34.094 18.993 33 17.329 33c-2.294 0-4.154 2.074-4.154 4.633 0 4.192 4.748 8.163 7.913 9.928C24.252 45.796 29 41.825 29 37.633 29 35.074 27.14 33 24.846 33"/>
        <path stroke="#000" stroke-linecap="round" stroke-linejoin="round" stroke-width="2" d="M19.169 24.734C24.393 15.914 34.006 10 44.999 10c16.569 0 30 13.431 30 30 0 16.568-13.431 30-30 30-11.39 0-21.298-6.349-26.378-15.7"/>
    </g>
</svg>
