<svg width="84" height="69" xmlns="http://www.w3.org/2000/svg"><defs><linearGradient x1="79.471%" y1="102.875%" x2="21.536%" y2="3.998%" id="a"><stop stop-color="#5AB700" offset="0%"/><stop stop-color="#75E312" offset="100%"/></linearGradient></defs><g fill-rule="nonzero" fill="none"><g fill="#5AB700"><path d="M0 53.27c0-2.04 1.556-3.665 3.699-3.665 1.279 0 2.04.346 2.765.968l-.968 1.175c-.553-.45-1.037-.726-1.832-.726-1.14 0-2.04 1.003-2.04 2.213v.034c0 1.28.9 2.247 2.144 2.247.553 0 1.072-.138 1.452-.415V54.1H3.664V52.75h3.077v3.076a4.541 4.541 0 0 1-3.008 1.106C1.521 56.9 0 55.343 0 53.27zM8.365 49.709h3.215c.899 0 1.59.242 2.074.726.38.38.588.933.588 1.624v.035c0 1.14-.622 1.866-1.521 2.178l1.728 2.523h-1.797l-1.521-2.247H9.92v2.247H8.365V49.71zm3.112 3.422c.76 0 1.175-.415 1.175-1.003v-.034c0-.657-.45-1.003-1.21-1.003H9.886v2.04h1.59zM15.798 49.709h5.323v1.382h-3.802v1.418h3.318v1.382h-3.318v1.487h3.837v1.382h-5.358zM22.677 49.709H28v1.382h-3.768v1.418h3.319v1.382h-3.319v1.487h3.837v1.382h-5.392zM29.59 49.709h1.417l3.319 4.355V49.71h1.52v7.051h-1.313l-3.422-4.493v4.493h-1.52V49.71zM40.375 49.709H45.7v1.382H41.93v1.418h3.318v1.382h-3.318v1.487h3.837v1.382H40.41V49.71zM47.358 49.709h1.417l3.319 4.355V49.71h1.52v7.051h-1.313l-3.422-4.493v4.493h-1.521zM55.378 49.709H60.7v1.382h-3.768v1.418h3.319v1.382h-3.319v1.487h3.837v1.382h-5.358V49.71zM62.153 49.709h3.215c.899 0 1.59.242 2.04.726.38.38.622.933.622 1.624v.035c0 1.14-.623 1.866-1.521 2.178l1.728 2.523h-1.832l-1.521-2.247h-1.21v2.247H62.12V49.71h.034zM65.3 53.13c.76 0 1.175-.415 1.175-1.003v-.034c0-.657-.45-1.003-1.21-1.003H63.71v2.04h1.59zM69.274 53.27c0-2.04 1.556-3.665 3.699-3.665 1.279 0 2.04.346 2.765.968l-.968 1.175c-.553-.45-1.037-.726-1.832-.726-1.14 0-2.04 1.003-2.04 2.213v.034c0 1.28.9 2.247 2.144 2.247.553 0 1.072-.138 1.452-.415V54.1h-1.556V52.75h3.077v3.076a4.541 4.541 0 0 1-3.008 1.106c-2.212-.034-3.733-1.59-3.733-3.664zM79.437 53.995l-2.696-4.286h1.797l1.694 2.834 1.728-2.834h1.763l-2.696 4.251v2.8h-1.555v-2.765z"/></g><g fill="#5AB700"><path d="M20.36 61.012h1.66l1.452 4.77 1.59-4.804h1.348L28 65.783l1.452-4.77h1.625l-2.42 7.086h-1.348l-1.59-4.632-1.59 4.632H22.78zM33.22 60.978h1.417l3.007 7.086H36.02l-.657-1.59H32.39l-.657 1.59h-1.59l3.077-7.086zm1.624 4.148l-.933-2.282-.933 2.282h1.866zM38.82 61.012h1.555v5.635h3.526v1.417H38.82zM45.111 61.012h1.556v5.635h3.526v1.417H45.11zM51.299 61.012h5.323v1.383h-3.768v1.417h3.319v1.383h-3.319v1.486h3.837v1.383h-5.358v-7.052zM59.837 62.464h-2.143v-1.417h5.842v1.417h-2.143V68.1h-1.556v-5.635z"/></g><path d="M52.509 9.506a2.844 2.844 0 0 1 3.871.968c.795 1.348.38 3.077-.968 3.872l-14.864 8.85a2.844 2.844 0 0 1-3.871-.969 2.844 2.844 0 0 1 .967-3.871l14.865-8.85zM32.7 15.832c.795 1.348 2.524 1.763 3.872.968l14.864-8.85c1.348-.794 1.763-2.523.968-3.871-.795-1.348-2.524-1.763-3.872-.968l-14.864 8.85a2.844 2.844 0 0 0-.968 3.871zm4.632-7.778l5.842-3.387a2.362 2.362 0 0 0 .865-3.18 2.362 2.362 0 0 0-3.18-.865L35.016 4.01a2.362 2.362 0 0 0-.864 3.18c.622 1.14 2.04 1.521 3.18.864zm24.924 8.953a2.747 2.747 0 0 0-1.625-2.005 2.765 2.765 0 0 0-2.592.173l-16.628 9.921c-1.348.795-1.763 2.524-.968 3.872.796 1.348 2.524 1.763 3.872.968l12.652-7.57c-.553 6.464-5.289 12.098-11.995 13.446-8.124 1.625-16.04-3.63-17.699-11.753a14.952 14.952 0 0 1 .588-8.02h-.104c.795-2.281 2.178-4.39 4.079-6.118 1.175-1.037 1.244-2.835.207-3.975C31.007 4.77 29.21 4.7 28.07 5.738c-8.469 7.605-9.16 20.706-1.555 29.176a20.683 20.683 0 0 0 11.89 6.533l.347.069c1.659.242 3.318.277 4.977.138.208 0 .415-.034.623-.069.207-.034.38-.034.587-.069H44.8c.415-.07.83-.104 1.279-.173 11.165-2.247 18.425-13.17 16.178-24.336z" fill="url(#a)"/></g></svg>