<svg xmlns="http://www.w3.org/2000/svg" width="80" height="80" viewBox="0 0 80 80">
    <g fill="none" fill-rule="evenodd">
        <path fill="#FFF" d="M0 80h80V0H0z"/>
        <path stroke="#B3B3B3" stroke-linecap="round" stroke-linejoin="round" stroke-width="2" d="M49 5H31a2 2 0 0 0-2 2v4h22V7a2 2 0 0 0-2-2z"/>
        <path stroke="#000" stroke-linecap="round" stroke-linejoin="round" stroke-width="2" d="M36 70H22a4 4 0 0 1-4-4V15a4 4 0 0 1 4-4h36a4 4 0 0 1 4 4v51a4 4 0 0 1-4 4H43.937a4 4 0 0 1-3.999-4v-4"/>
        <path stroke="#000" stroke-linecap="round" stroke-linejoin="round" stroke-width="2" d="M42 62h-4a5 5 0 0 1-5-5v-8h14v8a5 5 0 0 1-5 5zM37 44v5M43 44v5"/>
        <path fill="#5AB700" d="M46 37H34a2 2 0 0 1 0-4h12a2 2 0 0 1 0 4M46 30H34a2 2 0 0 1 0-4h12a2 2 0 0 1 0 4M46 23H34a2 2 0 0 1 0-4h12a2 2 0 0 1 0 4"/>
    </g>
</svg>
