<svg xmlns="http://www.w3.org/2000/svg" width="80" height="80" viewBox="0 0 80 80">
    <g fill="none" fill-rule="evenodd">
        <path fill="#FFF" d="M0 80h80V0H0z"/>
        <path stroke="#B3B3B3" stroke-linecap="round" stroke-linejoin="round" stroke-width="2" d="M16 19v42"/>
        <path fill="#5AB700" d="M47 51.227a2 2 0 0 1-2-2V30.773a2 2 0 0 1 4 0v18.454a2 2 0 0 1-2 2M40 51.227a2 2 0 0 1-2-2V30.773a2 2 0 0 1 4 0v18.454a2 2 0 0 1-2 2M33 51.227a2 2 0 0 1-2-2V30.773a2 2 0 0 1 4 0v18.454a2 2 0 0 1-2 2M26 51.227a2 2 0 0 1-2-2V30.773a2 2 0 0 1 4 0v18.454a2 2 0 0 1-2 2"/>
        <path stroke="#000" stroke-linecap="round" stroke-linejoin="round" stroke-width="2" d="M72 47h-9a7 7 0 1 1 0-14h9v14z"/>
        <path fill="#000" d="M64 40a1.5 1.5 0 1 1-3 0 1.5 1.5 0 0 1 3 0"/>
        <path stroke="#000" stroke-linecap="round" stroke-linejoin="round" stroke-width="2" d="M70 47v15a4 4 0 0 1-4 4H14a4 4 0 0 1-4-4V18a4 4 0 0 1 4-4h52a4 4 0 0 1 4 4v15"/>
    </g>
</svg>
